<svg width="800" height="600" xmlns="http://www.w3.org/2000/svg">
  <style>
    .small { font: italic 12px 'Arial', sans-serif; fill: #fff; }
    .box-text { font: bold 14px 'Arial', sans-serif; fill: white; dominant-baseline: middle; text-anchor: middle; }
    .playbook { fill: #1a3c6e; stroke: #3973ac; stroke-width: 2; rx: 10; }
    .state { fill: #3973ac; stroke: #4a8cce; stroke-width: 2; rx: 10; }
    .arrow { stroke: #ff6600; stroke-width: 2; fill: none; }
    .arrow-text { font: 12px 'Arial', sans-serif; fill: #ff6600; text-anchor: middle; }
    .group { fill: #e6f3ff; rx: 15; }
    .background { fill: #2c3e50; }
  </style>

  <defs>
    <marker id="arrowhead" markerWidth="10" markerHeight="7" refX="9" refY="3.5" orient="auto">
      <polygon points="0 0, 10 3.5, 0 7" fill="#ff6600" />
    </marker>
  </defs>

  <!-- Background -->
  <rect width="800" height="600" class="background" />

  <!-- WinPE Group -->
  <rect x="10" y="10" width="780" height="180" class="group" />

  <!-- generate_winpe.yml -->
  <rect x="300" y="20" width="200" height="60" class="playbook" />
  <text x="400" y="50" class="box-text">generate_winpe.yml</text>

  <!-- Custom WinPE ISO -->
  <rect x="300" y="120" width="200" height="60" class="state" />
  <text x="400" y="150" class="box-text">Custom WinPE ISO</text>

  <!-- Arrow from generate_winpe to Custom WinPE ISO -->
  <path d="M400 80 Q400 100 400 120" class="arrow" marker-end="url(#arrowhead)" />
  <text x="435" y="105" class="arrow-text">Creates</text>

  <!-- upload_winpe_iso.yml -->
  <rect x="20" y="120" width="200" height="60" class="playbook" />
  <text x="120" y="150" class="box-text">upload_winpe_iso.yml</text>

  <!-- Arrow from upload_winpe_iso to Custom WinPE ISO -->
  <path d="M220 150 H300" class="arrow" marker-end="url(#arrowhead)" />
  <text x="255" y="140" class="arrow-text">Uploads</text>

  <!-- produce_bsod.yml -->
  <rect x="20" y="220" width="200" height="60" class="playbook" />
  <text x="120" y="250" class="box-text">produce_bsod.yml</text>

  <!-- Windows VM (BSOD State) -->
  <rect x="300" y="220" width="200" height="60" class="state" />
  <text x="400" y="250" class="box-text">Windows VM (BSOD)</text>

  <!-- Arrow from produce_bsod to Windows VM -->
  <path d="M220 250 H300" class="arrow" marker-end="url(#arrowhead)" />
  <text x="255" y="240" class="arrow-text">Triggers</text>

  <!-- execute_winpe_recovery.yml -->
  <rect x="20" y="350" width="200" height="60" class="playbook" />
  <text x="120" y="380" class="box-text">execute_winpe_recovery.yml</text>

  <!-- WinPE Environment -->
  <rect x="300" y="350" width="200" height="90" class="state" />
  <text x="400" y="375" class="box-text">WinPE Environment</text>
  <text x="340" y="395" class="small">- Executes recovery script</text>
  <text x="340" y="415" class="small">- Monitors process</text>
  <text x="340" y="435" class="small">- Handles reboot</text>

  <!-- Arrow from execute_winpe_recovery to WinPE Environment -->
  <path d="M220 380 H300" class="arrow" marker-end="url(#arrowhead)" />
  <text x="260" y="370" class="arrow-text">Orchestrates</text>

  <!-- Arrow from Custom WinPE ISO to WinPE Environment -->
  <path d="M500 150 Q550 250 500 350" class="arrow" marker-end="url(#arrowhead)" />
  <text x="555" y="250" class="arrow-text">Used by</text>

  <!-- Arrow from Windows VM to WinPE Environment -->
  <path d="M400 280 V350" class="arrow" marker-end="url(#arrowhead)" />
  <text x="435" y="315" class="arrow-text">Boots into</text>

  <!-- check_system.yml -->
  <rect x="20" y="480" width="200" height="60" class="playbook" />
  <text x="120" y="510" class="box-text">check_system.yml</text>

  <!-- Recovered VM -->
  <rect x="300" y="480" width="200" height="60" class="state" />
  <text x="400" y="510" class="box-text">Recovered VM</text>

  <!-- Arrow from WinPE Environment to Recovered VM -->
  <path d="M400 440 V480" class="arrow" marker-end="url(#arrowhead)" />
  <text x="450" y="460" class="arrow-text">After recovery</text>

  <!-- Arrow from check_system to Recovered VM -->
  <path d="M220 510 H300" class="arrow" marker-end="url(#arrowhead)" />
  <text x="255" y="500" class="arrow-text">Verifies</text>
</svg>
